# xmcd CD database file
#
# Track frame offsets:
#	150
#	20275
#	41030
#	59777
#	86000
#	105462
#	125050
#	145737
#	177725
#
# Disc length: 4440 seconds
#
# Revision: 0
# Processed by: cddbd v1.5.1PL0 Copyright (c) Steve Scherf et al.
# Submitted via: CDex 1.51
#
DISCID=82115609
DTITLE=elliott - 手紙
DYEAR=2003
DGENRE=JPop
TTITLE0=手紙
TTITLE1=天気雨
TTITLE2=木曜日の糸
TTITLE3=ひまわり
TTITLE4=時の鐘(2003version)
TTITLE5=虹のかなたに HINERAUKATAURI
TTITLE6=Party〜月夜のおにごっこ〜
TTITLE7=遠い日のあなたへ（20歳のエンゲージversion）
TTITLE8=CCCD
EXTD=YEAR: 2003
EXTT0=
EXTT1=
EXTT2=
EXTT3=
EXTT4=
EXTT5=
EXTT6=
EXTT7=
EXTT8=
PLAYORDER=
